<?xml version="1.0" standalone="no"?>
<!DOCTYPE svg PUBLIC "-//W3C//DTD SVG 20010904//EN"
 "http://www.w3.org/TR/2001/REC-SVG-20010904/DTD/svg10.dtd">
<svg version="1.0" xmlns="http://www.w3.org/2000/svg"
 width="260.000000pt" height="260.000000pt" viewBox="0 0 260.000000 260.000000"
 preserveAspectRatio="xMidYMid meet">
<metadata>
Created by potrace 1.11, written by Peter Selinger 2001-2013
</metadata>
<g transform="translate(0.000000,260.000000) scale(0.100000,-0.100000)"
fill="#000000" stroke="none">
<path d="M1450 1868 c224 -69 368 -132 497 -219 84 -56 215 -162 249 -201 59
-69 108 -137 121 -166 13 -32 12 -36 -13 -69 -67 -88 -277 -207 -438 -249 -87
-23 -94 -24 -165 -31 l-64 -6 31 39 c41 51 88 157 98 219 53 331 -231 611
-556 549 -108 -20 -187 -64 -263 -146 -91 -98 -134 -228 -123 -369 14 -177
105 -310 268 -392 135 -67 255 -91 458 -90 235 1 437 49 632 150 165 85 357
240 403 327 17 32 18 39 6 73 -41 117 -244 289 -478 407 -178 89 -438 161
-653 180 l-45 4 35 -10z m-32 -362 c203 -103 193 -387 -17 -484 -97 -45 -222
-20 -298 60 -87 91 -99 236 -27 339 75 109 222 146 342 85z"/>
<path d="M1020 1860 c-87 -16 -106 -20 -185 -41 -86 -22 -219 -71 -311 -115
-266 -125 -535 -361 -520 -455 7 -44 76 -130 155 -194 209 -168 517 -283 861
-320 52 -5 50 -4 -45 28 -55 19 -109 37 -120 42 -11 4 -47 19 -80 33 -54 21
-112 51 -185 93 -142 82 -296 234 -315 312 -10 39 31 102 133 205 181 182 416
325 651 397 60 19 68 24 41 23 -19 0 -55 -4 -80 -8z"/>
</g>
</svg>
